<svg xmlns="http://www.w3.org/2000/svg" width="32" height="32" viewBox="0 0 32 32">
  <defs>
    <linearGradient id="primaryGrad" x1="0%" y1="0%" x2="100%" y2="100%">
      <stop offset="0%" style="stop-color:#8b5cf6;stop-opacity:1" />
      <stop offset="100%" style="stop-color:#7c3aed;stop-opacity:1" />
    </linearGradient>
    <linearGradient id="accentGrad" x1="0%" y1="0%" x2="100%" y2="100%">
      <stop offset="0%" style="stop-color:#06b6d4;stop-opacity:1" />
      <stop offset="100%" style="stop-color:#0891b2;stop-opacity:1" />
    </linearGradient>
  </defs>
  
  <!-- Background circle -->
  <circle cx="16" cy="16" r="15" fill="url(#primaryGrad)" stroke="none"/>
  
  <!-- Tech grid pattern -->
  <g opacity="0.1">
    <line x1="8" y1="4" x2="8" y2="28" stroke="white" stroke-width="0.5"/>
    <line x1="16" y1="4" x2="16" y2="28" stroke="white" stroke-width="0.5"/>
    <line x1="24" y1="4" x2="24" y2="28" stroke="white" stroke-width="0.5"/>
    <line x1="4" y1="8" x2="28" y2="8" stroke="white" stroke-width="0.5"/>
    <line x1="4" y1="16" x2="28" y2="16" stroke="white" stroke-width="0.5"/>
    <line x1="4" y1="24" x2="28" y2="24" stroke="white" stroke-width="0.5"/>
  </g>
  
  <!-- MT letters -->
  <g fill="white" font-family="system-ui, -apple-system, sans-serif" font-weight="800" font-size="14">
    <!-- M -->
    <path d="M 6 10 L 6 22 L 8 22 L 8 13.5 L 11 18 L 13 18 L 16 13.5 L 16 22 L 18 22 L 18 10 L 15.5 10 L 12 16 L 8.5 10 Z"/>
    <!-- T -->
    <path d="M 20 10 L 20 12 L 23 12 L 23 22 L 25 22 L 25 12 L 28 12 L 28 10 Z"/>
  </g>
  
  <!-- Tech accent dots -->
  <circle cx="7" cy="7" r="1" fill="url(#accentGrad)" opacity="0.8"/>
  <circle cx="25" cy="7" r="1" fill="url(#accentGrad)" opacity="0.8"/>
  <circle cx="7" cy="25" r="1" fill="url(#accentGrad)" opacity="0.6"/>
  <circle cx="25" cy="25" r="1" fill="url(#accentGrad)" opacity="0.6"/>
</svg>